<svg width="240" height="52" viewBox="0 0 240 52" fill="none" xmlns="http://www.w3.org/2000/svg">
<g clip-path="url(#clip0_179_32)">
<path d="M30.8078 31.8041C29.8227 31.8041 29.1913 31.0074 29.3981 30.0239C30.8081 23.3186 26.4882 17.8627 19.7682 17.8627C17.6242 17.8627 15.4007 18.4268 13.3377 19.4952C12.383 19.9888 11.3508 19.7039 11.0331 18.8528C10.7162 18.0028 11.2337 16.9135 12.1891 16.4189C14.863 15.0342 17.743 14.3022 20.5169 14.3022C29.2042 14.3022 34.7888 21.3554 32.9661 30.0239C32.7593 31.0074 31.7929 31.8041 30.8078 31.8041Z" fill="url(#paint0_radial_179_32)"/>
<path d="M23.8202 31.8068C22.8351 31.8068 22.2038 31.0101 22.4106 30.0266C23.0123 27.1647 21.1683 24.8365 18.3003 24.8365C15.4324 24.8365 12.6093 27.1647 12.0075 30.0266C11.8007 31.0101 10.8343 31.8068 9.84922 31.8068C8.86411 31.8068 8.23276 31.0101 8.43956 30.0266C9.45411 25.2015 14.2132 21.2761 19.049 21.2761C23.8847 21.2761 26.9931 25.2015 25.9785 30.0266C25.7717 31.0101 24.8053 31.8068 23.8202 31.8068Z" fill="url(#paint1_radial_179_32)"/>
<path d="M2.86374 31.8069C1.87864 31.8069 1.24729 31.0102 1.45408 30.0267L7.18812 2.75653C7.39492 1.77302 8.36131 0.976318 9.34642 0.976318C10.3315 0.976318 10.9629 1.77303 10.7561 2.75653L5.02205 30.0267C4.81525 31.0102 3.84885 31.8069 2.86374 31.8069Z" fill="url(#paint2_radial_179_32)"/>
<path d="M9.84928 31.8069C8.86418 31.8069 8.23282 31.0102 8.43962 30.0267L14.1737 2.75653C14.3805 1.77302 15.3468 0.976318 16.332 0.976318C17.3171 0.976318 17.9484 1.77303 17.7416 2.75653L12.0076 30.0267C11.8008 31.0102 10.8344 31.8069 9.84928 31.8069Z" fill="url(#paint3_radial_179_32)"/>
<path d="M12.7941 51.0236C4.10674 51.0236 -1.47784 43.9705 0.344865 35.3019C0.551665 34.3184 1.51806 33.5217 2.50317 33.5217C3.48827 33.5217 4.11962 34.3184 3.91283 35.3019C2.50291 42.0073 6.82272 47.4632 13.5427 47.4632C20.2623 47.4632 26.8765 42.0073 28.2864 35.3019C28.4932 34.3184 29.4596 33.5217 30.4447 33.5217C31.4298 33.5217 32.0611 34.3184 31.8543 35.3019C30.0316 43.9705 21.4809 51.0236 12.7941 51.0236Z" fill="url(#paint4_radial_179_32)"/>
<path d="M14.2597 44.0534C9.42393 44.0534 6.31558 40.128 7.33034 35.3019C7.53714 34.3184 8.50353 33.5217 9.48864 33.5217C10.4737 33.5217 11.1051 34.3184 10.8983 35.3019C10.2965 38.1638 12.1404 40.4929 15.0083 40.4929C17.8762 40.4929 20.6996 38.1638 21.3013 35.3019C21.5081 34.3184 22.4745 33.5217 23.4596 33.5217C24.4447 33.5217 25.0761 34.3184 24.8693 35.3019C23.8545 40.1279 19.0954 44.0534 14.2597 44.0534Z" fill="url(#paint5_radial_179_32)"/>
<path d="M65.4161 25.7135C64.0516 24.8615 62.5586 24.4294 60.9786 24.4294C60.0332 24.4294 59.1436 24.5917 58.3343 24.9116C57.5329 25.2296 56.8478 25.604 56.2988 26.0244C55.8981 26.3312 55.5913 26.6052 55.3705 26.8539V17.49H51.5939V44.0547H54.4524L55.1392 41.8176C55.3973 42.115 55.7603 42.4491 56.2215 42.8126C56.7723 43.2471 57.464 43.6347 58.2773 43.9636C59.0988 44.2964 60.0078 44.465 60.9786 44.465C62.5603 44.465 64.053 44.0328 65.4161 43.181C66.778 42.33 67.8739 41.1208 68.674 39.5875C69.4723 38.0577 69.8769 36.3221 69.8769 34.4288C69.8769 32.5351 69.4723 30.8056 68.6735 29.2877C67.8739 27.7682 66.778 26.5655 65.4161 25.7135ZM66.0626 34.4288C66.0626 35.6823 65.8186 36.8231 65.3376 37.8199C64.8587 38.8101 64.2057 39.5836 63.3973 40.1179C62.591 40.65 61.6891 40.9198 60.7166 40.9198C59.7681 40.9198 58.8724 40.6496 58.0543 40.117C57.2327 39.5823 56.5739 38.8097 56.096 37.8195C55.6145 36.8245 55.3705 35.6836 55.3705 34.4288C55.3705 33.175 55.6145 32.0407 56.0956 31.0574C56.5739 30.0795 57.2327 29.3126 58.0543 28.7779C58.8728 28.2449 59.7686 27.9747 60.7166 27.9747C61.6887 27.9747 62.5906 28.2447 63.3968 28.777C64.2061 29.3117 64.8592 30.0786 65.338 31.057C65.8186 32.042 66.0626 33.1763 66.0626 34.4288Z" fill="white"/>
<path d="M86.0151 25.6945C84.6524 24.8551 83.122 24.4294 81.467 24.4294C79.7874 24.4294 78.2131 24.8738 76.7876 25.7499C75.3634 26.6254 74.2236 27.84 73.3994 29.36C72.5747 30.8775 72.1569 32.5829 72.1569 34.4289C72.1569 36.323 72.5682 38.053 73.3797 39.5709C74.1933 41.0933 75.3279 42.3024 76.7516 43.1643C78.1758 44.0276 79.7746 44.4651 81.5043 44.4651C82.777 44.4651 83.9853 44.2006 85.0956 43.6789C86.2008 43.1591 87.161 42.4645 87.9501 41.614C88.7388 40.763 89.3322 39.842 89.714 38.8763L89.8351 38.5697H85.9826L85.9159 38.6696C85.4384 39.383 84.8354 39.9493 84.1226 40.3522C83.4134 40.7538 82.5326 40.9575 81.5043 40.9575C80.4053 40.9575 79.42 40.6925 78.5756 40.1705C77.7307 39.6484 77.061 38.889 76.5839 37.9119C76.3123 37.3566 76.1161 36.7408 75.9967 36.0708H90.1533L90.2047 35.9175C90.2846 35.6779 90.3381 35.3836 90.3649 35.0429C90.3899 34.7118 90.4026 34.3544 90.4026 33.9808C90.4026 32.2111 90.0103 30.581 89.2356 29.1366C88.4597 27.6905 87.3761 26.5323 86.0151 25.6945ZM76.6199 31.0417C77.1229 30.0506 77.8133 29.2706 78.6717 28.7229C79.5275 28.177 80.4681 27.9002 81.467 27.9002C82.4391 27.9002 83.341 28.17 84.1468 28.7021C84.9556 29.2365 85.596 29.9845 86.0498 30.9257C86.3473 31.5432 86.5492 32.2163 86.6537 32.9359H75.9897C76.1135 32.2597 76.3237 31.6259 76.6199 31.0417Z" fill="white"/>
<path d="M104.034 33.9471C103.229 33.5582 102.161 33.1583 100.863 32.7598C99.9268 32.4651 99.1794 32.1979 98.6414 31.9658C98.123 31.7429 97.6947 31.4582 97.3677 31.1201C97.0583 30.8013 96.9078 30.4067 96.9078 29.9144C96.9078 29.2824 97.15 28.7779 97.6477 28.3715C98.152 27.9598 98.8964 27.7509 99.861 27.7509C100.845 27.7509 101.612 27.9948 102.14 28.4757C102.669 28.9586 102.998 29.6411 103.115 30.5043L103.142 30.6984H106.869L106.852 30.4584C106.775 29.3556 106.436 28.3286 105.845 27.406C105.253 26.4808 104.431 25.7451 103.403 25.2193C102.378 24.6951 101.186 24.4294 99.861 24.4294C98.5132 24.4294 97.3168 24.6754 96.3052 25.1606C95.2874 25.6489 94.4952 26.3293 93.951 27.1824C93.4068 28.0358 93.1307 28.9925 93.1307 30.0261C93.1307 31.2165 93.4301 32.1984 94.0204 32.9446C94.6006 33.6782 95.3138 34.2462 96.1393 34.6321C96.946 35.0092 97.9993 35.402 99.2712 35.7992C100.23 36.094 100.989 36.3607 101.529 36.5932C102.048 36.817 102.489 37.1144 102.84 37.4762C103.175 37.8217 103.337 38.2404 103.337 38.7563C103.337 39.4391 103.071 39.9931 102.521 40.4499C101.968 40.9106 101.148 41.1441 100.085 41.1441C99.0223 41.1441 98.1529 40.8668 97.5003 40.3198C96.8419 39.7684 96.4764 39.0787 96.3829 38.2102L96.3614 38.01H92.6287L92.6453 38.25C92.7226 39.3541 93.0807 40.3947 93.7101 41.3429C94.339 42.2911 95.2168 43.0575 96.3188 43.6198C97.4186 44.1808 98.6857 44.4651 100.085 44.4651C101.532 44.4651 102.798 44.2128 103.846 43.7157C104.902 43.2143 105.72 42.5149 106.276 41.6372C106.832 40.7587 107.114 39.7522 107.114 38.6446C107.114 37.4543 106.802 36.4597 106.187 35.688C105.582 34.9316 104.858 34.3461 104.034 33.9471Z" fill="white"/>
<path d="M115.265 19.9155H111.974V22.9379C111.974 23.6156 111.797 24.1254 111.447 24.453C111.093 24.7841 110.579 24.952 109.918 24.952H108.273V28.3107H111.488V37.9357C111.488 39.2842 111.735 40.4601 112.223 41.431C112.713 42.4116 113.409 43.171 114.291 43.6878C115.169 44.2037 116.176 44.4652 117.284 44.4652C117.717 44.4652 118.109 44.4323 118.448 44.368C118.784 44.3031 119.087 44.2177 119.349 44.1131L119.49 44.057V40.5595L119.186 40.6734C118.815 40.8122 118.401 40.8827 117.957 40.8827C117.091 40.8827 116.442 40.6374 115.971 40.1334C115.503 39.6323 115.265 38.8431 115.265 37.7868V28.3107H119.49V24.8399H115.265V19.9155Z" fill="white"/>
<path d="M162.035 25.7135C160.671 24.8615 159.178 24.4294 157.598 24.4294C156.653 24.4294 155.763 24.5917 154.954 24.9116C154.152 25.2296 153.467 25.604 152.918 26.0244C152.517 26.3312 152.211 26.6052 151.99 26.8539V17.49H148.213V44.0547H151.072L151.759 41.8176C152.017 42.115 152.38 42.4491 152.841 42.8126C153.392 43.2471 154.083 43.6347 154.897 43.9636C155.718 44.2964 156.627 44.465 157.598 44.465C159.18 44.465 160.672 44.0328 162.035 43.181C163.397 42.33 164.493 41.1208 165.293 39.5875C166.092 38.0577 166.496 36.3221 166.496 34.4288C166.496 32.5351 166.092 30.8056 165.293 29.2877C164.493 27.7682 163.397 26.5655 162.035 25.7135ZM162.682 34.4288C162.682 35.6823 162.438 36.8231 161.957 37.8199C161.478 38.8101 160.825 39.5836 160.017 40.1179C159.21 40.65 158.308 40.9198 157.336 40.9198C156.387 40.9198 155.492 40.6496 154.674 40.117C153.852 39.5823 153.193 38.8097 152.715 37.8195C152.234 36.8245 151.99 35.6836 151.99 34.4288C151.99 33.175 152.234 32.0407 152.715 31.0574C153.193 30.0795 153.852 29.3126 154.674 28.7779C155.492 28.2449 156.388 27.9747 157.336 27.9747C158.308 27.9747 159.21 28.2447 160.016 28.777C160.825 29.3117 161.478 30.0786 161.957 31.057C162.438 32.042 162.682 33.1763 162.682 34.4288Z" fill="white"/>
<path d="M179.155 24.4682C178.894 24.4426 178.622 24.4294 178.348 24.4294C177.262 24.4294 176.252 24.7305 175.345 25.3246C174.539 25.8535 173.911 26.423 173.474 27.0204L172.793 24.8398H169.935V44.0547H173.712V33.2722C173.712 32.243 173.912 31.3294 174.304 30.5569C174.694 29.7922 175.243 29.2023 175.937 28.8027C176.634 28.4017 177.445 28.1985 178.348 28.1985C178.898 28.1985 179.384 28.2467 179.792 28.3419L180.068 28.4063V24.623L179.892 24.584C179.66 24.533 179.413 24.494 179.155 24.4682Z" fill="white"/>
<path d="M194.45 25.6945C193.087 24.8551 191.556 24.4294 189.901 24.4294C188.222 24.4294 186.648 24.8738 185.222 25.7499C183.798 26.6254 182.658 27.84 181.834 29.36C181.009 30.8775 180.591 32.5829 180.591 34.4289C180.591 36.323 181.003 38.053 181.814 39.5709C182.628 41.0933 183.762 42.3024 185.186 43.1643C186.61 44.0276 188.209 44.4651 189.939 44.4651C191.212 44.4651 192.42 44.2006 193.53 43.6789C194.635 43.1591 195.596 42.4645 196.385 41.614C197.173 40.763 197.767 39.842 198.149 38.8763L198.27 38.5697H194.417L194.35 38.6696C193.873 39.383 193.27 39.9493 192.557 40.3522C191.848 40.7538 190.967 40.9575 189.939 40.9575C188.84 40.9575 187.855 40.6925 187.01 40.1705C186.165 39.6484 185.496 38.889 185.018 37.9119C184.747 37.3566 184.551 36.7408 184.431 36.0708H198.588L198.639 35.9175C198.719 35.6779 198.773 35.3836 198.799 35.0429C198.824 34.7118 198.837 34.3544 198.837 33.9808C198.837 32.2111 198.445 30.581 197.67 29.1366C196.894 27.6905 195.811 26.5323 194.45 25.6945ZM185.054 31.0417C185.557 30.0506 186.248 29.2706 187.106 28.7229C187.962 28.177 188.903 27.9002 189.901 27.9002C190.874 27.9002 191.776 28.17 192.581 28.7021C193.39 29.2365 194.03 29.9845 194.484 30.9257C194.782 31.5432 194.984 32.2163 195.088 32.9359H184.424C184.548 32.2597 184.758 31.6259 185.054 31.0417Z" fill="white"/>
<path d="M215.012 25.6945C213.649 24.8551 212.119 24.4294 210.464 24.4294C208.784 24.4294 207.21 24.8738 205.785 25.7499C204.36 26.6254 203.221 27.84 202.396 29.36C201.572 30.8775 201.154 32.5829 201.154 34.4289C201.154 36.323 201.565 38.053 202.377 39.5709C203.19 41.0933 204.325 42.3024 205.749 43.1643C207.173 44.0276 208.772 44.4651 210.501 44.4651C211.774 44.4651 212.982 44.2006 214.093 43.6789C215.198 43.1591 216.158 42.4645 216.947 41.614C217.736 40.763 218.329 39.842 218.711 38.8763L218.832 38.5697H214.98L214.913 38.6696C214.435 39.383 213.832 39.9493 213.12 40.3522C212.41 40.7538 211.53 40.9575 210.501 40.9575C209.402 40.9575 208.417 40.6925 207.573 40.1705C206.728 39.6484 206.058 38.889 205.581 37.9119C205.309 37.3566 205.113 36.7408 204.994 36.0708H219.15L219.202 35.9175C219.282 35.6779 219.335 35.3836 219.362 35.0429C219.387 34.7118 219.4 34.3544 219.4 33.9808C219.4 32.2111 219.007 30.581 218.233 29.1366C217.457 27.6905 216.373 26.5323 215.012 25.6945ZM205.617 31.0417C206.12 30.0506 206.81 29.2706 207.669 28.7229C208.525 28.177 209.465 27.9002 210.464 27.9002C211.436 27.9002 212.338 28.17 213.144 28.7021C213.953 29.2365 214.593 29.9845 215.047 30.9257C215.344 31.5432 215.546 32.2163 215.651 32.9359H204.987C205.111 32.2597 205.321 31.6259 205.617 31.0417Z" fill="white"/>
<path d="M236.186 17.49V26.8524C235.968 26.6043 235.667 26.3315 235.278 26.026C234.741 25.6049 234.055 25.2298 233.239 24.9112C232.417 24.5915 231.535 24.4294 230.615 24.4294C229.009 24.4294 227.51 24.8617 226.158 25.7142C224.809 26.5653 223.72 27.7675 222.92 29.2877C222.121 30.8056 221.717 32.5351 221.717 34.4288C221.717 36.3221 222.121 38.0577 222.92 39.5875C223.72 41.1212 224.809 42.33 226.158 43.1805C227.508 44.0328 229.008 44.465 230.615 44.465C231.561 44.465 232.463 44.2964 233.297 43.964C234.123 43.6347 234.821 43.2471 235.372 42.8126C235.831 42.4504 236.193 42.1176 236.452 41.8207L237.101 44.0547H240V17.49L236.186 17.49ZM236.186 34.4288C236.186 35.6818 235.942 36.8227 235.46 37.8199C234.981 38.8102 234.328 39.5836 233.52 40.1179C232.714 40.65 231.812 40.9198 230.84 40.9198C229.891 40.9198 228.995 40.6496 228.177 40.117C227.355 39.5823 226.697 38.8097 226.219 37.8199C225.738 36.824 225.494 35.6831 225.494 34.4288C225.494 33.1754 225.738 32.0411 226.218 31.0574C226.697 30.0795 227.355 29.3126 228.177 28.7779C228.996 28.2449 229.892 27.9747 230.84 27.9747C231.811 27.9747 232.713 28.2447 233.519 28.777C234.329 29.3118 234.982 30.0786 235.461 31.057C235.942 32.0424 236.186 33.1767 236.186 34.4288Z" fill="white"/>
<path d="M132.392 29.4449C131.67 29.0067 130.878 28.7869 130.013 28.7869C128.889 28.7869 127.876 29.093 126.976 29.7037C126.075 30.3151 125.372 31.11 124.868 32.0875C124.363 33.0659 124.111 34.0728 124.111 35.1081C124.111 36.0432 124.316 36.8919 124.727 37.654C125.138 38.4164 125.703 39.0169 126.424 39.4553C127.145 39.8941 127.945 40.1135 128.824 40.1135C129.934 40.1135 130.939 39.8083 131.84 39.1964C132.741 38.5855 133.444 37.7871 133.948 36.8017C134.453 35.8167 134.705 34.8059 134.705 33.7706C134.705 32.8356 134.499 31.9907 134.089 31.2357C133.678 30.4802 133.112 29.8837 132.392 29.4449ZM132.305 36.0252C131.988 36.7229 131.537 37.2799 130.954 37.6973C130.37 38.1142 129.725 38.3227 129.019 38.3227C128.384 38.3227 127.844 38.1716 127.397 37.8699C126.95 37.5677 126.611 37.1613 126.381 36.6506C126.15 36.1404 126.035 35.5973 126.035 35.0218C126.035 34.2742 126.194 33.5547 126.51 32.8645C126.827 32.1742 127.278 31.6207 127.862 31.2033C128.446 30.7864 129.098 30.5775 129.819 30.5775C130.438 30.5775 130.972 30.7285 131.418 31.0307C131.865 31.3325 132.204 31.7354 132.435 32.2386C132.665 32.7423 132.78 33.2818 132.78 33.8569C132.78 34.6049 132.622 35.3275 132.305 36.0252Z" fill="white"/>
<path d="M141.148 24.5371C140.268 24.5371 139.512 24.8284 138.877 25.4108C138.243 25.9933 137.832 26.8167 137.645 27.8809L137.445 29.0244H135.937L135.634 30.7721H137.14L135.548 39.8763H137.472L139.066 30.7721H141.515L141.818 29.0244H139.336L139.505 28.1183C139.605 27.5143 139.814 27.0685 140.131 26.7808C140.448 26.4935 140.845 26.3494 141.321 26.3494C141.537 26.3494 141.72 26.3638 141.872 26.3923C142.023 26.4216 142.164 26.4646 142.294 26.5219L142.575 24.8174C142.358 24.7171 142.135 24.6448 141.904 24.6019C141.673 24.5586 141.421 24.5371 141.148 24.5371Z" fill="white"/>
</g>
<defs>
<radialGradient id="paint0_radial_179_32" cx="0" cy="0" r="1" gradientUnits="userSpaceOnUse" gradientTransform="translate(32.9116 26.1398) scale(21.1238 21.0792)">
<stop offset="0.55987" stop-color="#0080E5"/>
<stop offset="0.60071" stop-color="#0081E4" stop-opacity="0.933272"/>
<stop offset="0.66333" stop-color="#0085E4" stop-opacity="0.761396"/>
<stop offset="0.73993" stop-color="#008DE3" stop-opacity="0.517925"/>
<stop offset="0.82755" stop-color="#0097E3" stop-opacity="0.257221"/>
<stop offset="0.92314" stop-color="#00A3E1" stop-opacity="0.0571162"/>
<stop offset="1" stop-color="#00AFE1" stop-opacity="0"/>
</radialGradient>
<radialGradient id="paint1_radial_179_32" cx="0" cy="0" r="1" gradientUnits="userSpaceOnUse" gradientTransform="translate(27.0655 29.0576) scale(19.7297 19.6881)">
<stop offset="0.17072" stop-color="#0080E5"/>
<stop offset="0.28315" stop-color="#0080E4" stop-opacity="0.97413"/>
<stop offset="0.36683" stop-color="#0082E4" stop-opacity="0.893876"/>
<stop offset="0.44124" stop-color="#0085E4" stop-opacity="0.76587"/>
<stop offset="0.51022" stop-color="#008AE4" stop-opacity="0.602052"/>
<stop offset="0.5755" stop-color="#0090E3" stop-opacity="0.41936"/>
<stop offset="0.63796" stop-color="#0097E2" stop-opacity="0.240169"/>
<stop offset="0.69825" stop-color="#00A0E2" stop-opacity="0.0918272"/>
<stop offset="0.75528" stop-color="#00AAE1" stop-opacity="0.01"/>
<stop offset="0.77766" stop-color="#00AFE1" stop-opacity="0"/>
</radialGradient>
<radialGradient id="paint2_radial_179_32" cx="0" cy="0" r="1" gradientUnits="userSpaceOnUse" gradientTransform="translate(9.33956 1.02672) scale(32.0757 32.0079)">
<stop offset="0.24493" stop-color="#0080E5"/>
<stop offset="0.30843" stop-color="#0081E4" stop-opacity="0.92404"/>
<stop offset="0.41162" stop-color="#0086E4" stop-opacity="0.732479"/>
<stop offset="0.54161" stop-color="#008EE3" stop-opacity="0.467801"/>
<stop offset="0.69333" stop-color="#009AE2" stop-opacity="0.198381"/>
<stop offset="0.86138" stop-color="#00A8E1" stop-opacity="0.020886"/>
<stop offset="0.93626" stop-color="#00AFE1" stop-opacity="0"/>
</radialGradient>
<radialGradient id="paint3_radial_179_32" cx="0" cy="0" r="1" gradientUnits="userSpaceOnUse" gradientTransform="translate(16.662 0.895118) scale(35.6894 35.614)">
<stop offset="0.24493" stop-color="#0080E5"/>
<stop offset="0.30603" stop-color="#0082E4" stop-opacity="0.902994"/>
<stop offset="0.4148" stop-color="#0088E4" stop-opacity="0.668208"/>
<stop offset="0.55851" stop-color="#0092E3" stop-opacity="0.36232"/>
<stop offset="0.72956" stop-color="#00A0E2" stop-opacity="0.0945993"/>
<stop offset="0.89198" stop-color="#00AFE1" stop-opacity="0"/>
</radialGradient>
<radialGradient id="paint4_radial_179_32" cx="0" cy="0" r="1" gradientUnits="userSpaceOnUse" gradientTransform="translate(13.8001 48.918) rotate(-43.46) scale(24.2663 47.0512)">
<stop offset="0.20459" stop-color="#0080E5"/>
<stop offset="0.38081" stop-color="#008BE4" stop-opacity="0.573034"/>
<stop offset="0.78658" stop-color="#00A4E1" stop-opacity="0.0468982"/>
<stop offset="0.96547" stop-color="#00AFE1" stop-opacity="0"/>
</radialGradient>
<radialGradient id="paint5_radial_179_32" cx="0" cy="0" r="1" gradientUnits="userSpaceOnUse" gradientTransform="translate(6.2547 43.6283) scale(23.2655 23.2164)">
<stop offset="0.49105" stop-color="#0080E5"/>
<stop offset="0.51822" stop-color="#0084E4" stop-opacity="0.810216"/>
<stop offset="0.5888" stop-color="#008FE3" stop-opacity="0.441188"/>
<stop offset="0.66013" stop-color="#0099E2" stop-opacity="0.212401"/>
<stop offset="0.73074" stop-color="#00A1E2" stop-opacity="0.0869071"/>
<stop offset="0.80052" stop-color="#00A7E1" stop-opacity="0.027493"/>
<stop offset="0.86921" stop-color="#00ABE1" stop-opacity="0.01"/>
<stop offset="0.93629" stop-color="#00AEE1" stop-opacity="0.01"/>
<stop offset="1" stop-color="#00AFE1" stop-opacity="0"/>
</radialGradient>
<clipPath id="clip0_179_32">
<rect width="240" height="50.0474" fill="white" transform="translate(0 0.976318)"/>
</clipPath>
</defs>
</svg>
