<svg width="42" height="42" viewBox="0 0 42 42" fill="none" xmlns="http://www.w3.org/2000/svg">
<circle cx="21" cy="21" r="21" fill="#0080E5"/>
<path fill-rule="evenodd" clip-rule="evenodd" d="M10.1728 11.9812C10.1728 11.5013 10.3634 11.0411 10.7027 10.7018C11.0421 10.3625 11.5022 10.1719 11.9821 10.1719H30.0178C30.2556 10.1715 30.4912 10.218 30.7109 10.3088C30.9307 10.3995 31.1305 10.5328 31.2987 10.7008C31.467 10.8689 31.6004 11.0685 31.6915 11.2882C31.7824 11.5079 31.8292 11.7434 31.8291 11.9812V30.0169C31.8294 30.2547 31.7827 30.4903 31.6918 30.7101C31.601 30.9299 31.4676 31.1296 31.2995 31.2978C31.1313 31.4661 30.9317 31.5996 30.7119 31.6905C30.4922 31.7815 30.2566 31.8282 30.0188 31.8281H11.9821C11.7444 31.8281 11.5091 31.7813 11.2895 31.6903C11.0699 31.5994 10.8704 31.466 10.7024 31.2978C10.5344 31.1297 10.4011 30.9302 10.3103 30.7106C10.2194 30.491 10.1727 30.2556 10.1728 30.0179V11.9812ZM18.7448 18.4288H21.6772V19.9014C22.1005 19.0549 23.1833 18.293 24.8105 18.293C27.93 18.293 28.6692 19.9792 28.6692 23.0731V28.8041H25.5123V23.7779C25.5123 22.0159 25.0891 21.0217 24.0141 21.0217C22.5228 21.0217 21.9026 22.0936 21.9026 23.7779V28.8041H18.7448V18.4288ZM13.3307 28.6693H16.4886V18.293H13.3307V28.6693ZM16.9404 14.9087C16.9464 15.1791 16.8982 15.4479 16.7989 15.6995C16.6995 15.951 16.5509 16.1801 16.3618 16.3735C16.1727 16.5668 15.9469 16.7204 15.6976 16.8253C15.4483 16.9301 15.1806 16.9842 14.9101 16.9842C14.6397 16.9842 14.372 16.9301 14.1227 16.8253C13.8734 16.7204 13.6476 16.5668 13.4584 16.3735C13.2693 16.1801 13.1207 15.951 13.0214 15.6995C12.922 15.4479 12.8739 15.1791 12.8799 14.9087C12.8915 14.378 13.1106 13.8729 13.4901 13.5017C13.8695 13.1305 14.3793 12.9226 14.9101 12.9226C15.441 12.9226 15.9507 13.1305 16.3302 13.5017C16.7097 13.8729 16.9287 14.378 16.9404 14.9087Z" fill="white"/>
</svg>
