<svg width="160" height="23" viewBox="0 0 160 23" fill="none" xmlns="http://www.w3.org/2000/svg">
<path d="M11.7382 7.03392C10.5795 6.31102 9.31148 5.94446 7.96972 5.94446C7.16689 5.94446 6.41141 6.08213 5.72412 6.35356C5.04355 6.62333 4.46175 6.94102 3.99548 7.29773C3.6552 7.55802 3.39467 7.79044 3.20719 8.00149V0.0568848H0V22.595H2.42748L3.01077 20.697C3.22993 20.9493 3.53816 21.2329 3.92988 21.5413C4.39764 21.9099 4.98504 22.2387 5.67567 22.5178C6.37339 22.8001 7.14528 22.9432 7.96972 22.9432C9.31298 22.9432 10.5806 22.5765 11.7382 21.8538C12.8948 21.1318 13.8254 20.1059 14.5049 18.805C15.1828 17.5071 15.5265 16.0345 15.5265 14.4282C15.5265 12.8215 15.1828 11.3542 14.5045 10.0663C13.8254 8.77716 12.8947 7.75681 11.7382 7.03392ZM12.2872 14.4282C12.2872 15.4917 12.08 16.4596 11.6715 17.3053C11.2649 18.1454 10.7103 18.8016 10.0237 19.255C9.33906 19.7064 8.57313 19.9353 7.7472 19.9353C6.94177 19.9353 6.18107 19.7061 5.48633 19.2542C4.78861 18.8005 4.22916 18.1451 3.82328 17.3049C3.41441 16.4607 3.20718 15.4928 3.20718 14.4282C3.20718 13.3644 3.41441 12.402 3.82291 11.5679C4.22916 10.7381 4.78861 10.0875 5.48633 9.63381C6.18144 9.18161 6.94214 8.95235 7.7472 8.95235C8.57276 8.95235 9.33869 9.18142 10.0234 9.63307C10.7106 10.0868 11.2652 10.7374 11.6719 11.5675C12.08 12.4032 12.2872 13.3655 12.2872 14.4282Z" fill="#0F0823"/>
<path d="M29.2314 7.01787C28.0742 6.30575 26.7745 5.94458 25.369 5.94458C23.9426 5.94458 22.6057 6.32154 21.3951 7.06488C20.1857 7.80765 19.2178 8.83821 18.5178 10.1278C17.8175 11.4153 17.4626 12.8622 17.4626 14.4283C17.4626 16.0354 17.8119 17.5031 18.501 18.791C19.192 20.0826 20.1555 21.1085 21.3646 21.8397C22.574 22.5721 23.9318 22.9433 25.4007 22.9433C26.4815 22.9433 27.5076 22.7189 28.4506 22.2763C29.3891 21.8353 30.2046 21.246 30.8747 20.5244C31.5445 19.8024 32.0484 19.021 32.3726 18.2017L32.4755 17.9416H29.2038L29.1472 18.0263C28.7417 18.6316 28.2296 19.112 27.6243 19.4539C27.022 19.7946 26.274 19.9674 25.4007 19.9674C24.4674 19.9674 23.6307 19.7426 22.9136 19.2997C22.1961 18.8568 21.6273 18.2125 21.2222 17.3835C20.9915 16.9123 20.8249 16.3899 20.7235 15.8214H32.7457L32.7893 15.6913C32.8572 15.4881 32.9027 15.2384 32.9254 14.9493C32.9466 14.6684 32.9574 14.3652 32.9574 14.0482C32.9574 12.5467 32.6242 11.1637 31.9664 9.93825C31.3074 8.71132 30.3872 7.72869 29.2314 7.01787ZM21.2528 11.5546C21.6799 10.7137 22.2662 10.052 22.9952 9.5873C23.722 9.12413 24.5207 8.88929 25.369 8.88929C26.1946 8.88929 26.9605 9.11818 27.6448 9.56965C28.3317 10.023 28.8755 10.6576 29.2609 11.4561C29.5136 11.98 29.685 12.5512 29.7737 13.1616H20.7176C20.8227 12.5879 21.0012 12.0503 21.2528 11.5546Z" fill="#0F0823"/>
<path d="M44.5335 14.0196C43.8496 13.6897 42.9432 13.3504 41.8407 13.0123C41.0457 12.7622 40.4109 12.5355 39.954 12.3386C39.5138 12.1495 39.1501 11.908 38.8724 11.6211C38.6096 11.3506 38.4818 11.0158 38.4818 10.5982C38.4818 10.062 38.6875 9.63393 39.1102 9.28911C39.5384 8.93983 40.1705 8.76259 40.9898 8.76259C41.8254 8.76259 42.4765 8.96955 42.9249 9.37755C43.3748 9.7872 43.6536 10.3663 43.7534 11.0987L43.7758 11.2633H46.9413L46.9271 11.0597C46.8611 10.124 46.5734 9.2527 46.0717 8.46998C45.5686 7.68503 44.8708 7.06079 43.9976 6.61471C43.1273 6.16994 42.1154 5.94458 40.9898 5.94458C39.8452 5.94458 38.8292 6.15322 37.9701 6.56492C37.1057 6.97923 36.433 7.55647 35.9708 8.28029C35.5087 9.0043 35.2742 9.81601 35.2742 10.6929C35.2742 11.7029 35.5284 12.5359 36.0297 13.1691C36.5224 13.7915 37.1281 14.2734 37.8292 14.6008C38.5142 14.9207 39.4087 15.254 40.4889 15.591C41.3029 15.8411 41.948 16.0674 42.4065 16.2647C42.847 16.4545 43.2216 16.7068 43.5198 17.0138C43.8038 17.3069 43.942 17.6621 43.942 18.0999C43.942 18.6791 43.7154 19.1492 43.2488 19.5367C42.7788 19.9276 42.0829 20.1257 41.1802 20.1257C40.2775 20.1257 39.5392 19.8905 38.985 19.4264C38.4259 18.9586 38.1154 18.3733 38.036 17.6365L38.0178 17.4667H34.8478L34.862 17.6703C34.9276 18.6071 35.2317 19.4899 35.7662 20.2944C36.3003 21.0988 37.0457 21.7491 37.9816 22.2262C38.9156 22.7022 39.9916 22.9433 41.1802 22.9433C42.4091 22.9433 43.4836 22.7293 44.3736 22.3076C45.2708 21.8821 45.9651 21.2887 46.4377 20.5441C46.9099 19.7987 47.1496 18.9448 47.1496 18.0051C47.1496 16.9952 46.8846 16.1513 46.3617 15.4966C45.8485 14.8549 45.2335 14.3581 44.5335 14.0196Z" fill="#0F0823"/>
<path d="M54.0717 2.1145H51.2767V4.67873C51.2767 5.25374 51.1261 5.68625 50.8291 5.96419C50.5283 6.2451 50.0915 6.3876 49.5309 6.3876H48.1336V9.23719H50.8641V17.4033C50.8641 18.5473 51.0739 19.545 51.4877 20.3688C51.9043 21.2007 52.4955 21.8451 53.2442 22.2835C53.99 22.7212 54.845 22.943 55.7858 22.943C56.1536 22.943 56.4865 22.9152 56.7746 22.8606C57.0601 22.8056 57.3172 22.7331 57.5394 22.6443L57.6594 22.5967V19.6294L57.4015 19.726C57.0862 19.8438 56.7347 19.9036 56.3571 19.9036C55.6218 19.9036 55.0705 19.6955 54.671 19.2678C54.2733 18.8427 54.0717 18.1732 54.0717 17.2769V9.2372H57.6594V6.29248H54.0717V2.1145Z" fill="#0F0823"/>
<path d="M93.7901 7.03392C92.6313 6.31102 91.3634 5.94446 90.0216 5.94446C89.2188 5.94446 88.4633 6.08213 87.776 6.35356C87.0954 6.62333 86.5136 6.94102 86.0474 7.29773C85.7071 7.55802 85.4465 7.79044 85.2591 8.00149V0.0568848H82.0519V22.595H84.4794L85.0626 20.697C85.2818 20.9493 85.59 21.2329 85.9818 21.5413C86.4495 21.9099 87.0369 22.2387 87.7275 22.5178C88.4253 22.8001 89.1972 22.9432 90.0216 22.9432C91.3649 22.9432 92.6325 22.5765 93.7901 21.8538C94.9466 21.1318 95.8773 20.1059 96.5567 18.805C97.2347 17.5071 97.5783 16.0345 97.5783 14.4282C97.5783 12.8215 97.2347 11.3542 96.5564 10.0663C95.8773 8.77716 94.9466 7.75681 93.7901 7.03392ZM94.3391 14.4282C94.3391 15.4917 94.1319 16.4596 93.7234 17.3053C93.3167 18.1454 92.7621 18.8016 92.0756 19.255C91.3909 19.7064 90.625 19.9353 89.7991 19.9353C88.9937 19.9353 88.2329 19.7061 87.5382 19.2542C86.8405 18.8005 86.281 18.1451 85.8752 17.3049C85.4663 16.4607 85.2591 15.4928 85.2591 14.4282C85.2591 13.3644 85.4663 12.402 85.8748 11.5679C86.281 10.7381 86.8405 10.0875 87.5382 9.63381C88.2333 9.18161 88.994 8.95235 89.7991 8.95235C90.6246 8.95235 91.3906 9.18142 92.0752 9.63307C92.7625 10.0868 93.3171 10.7374 93.7237 11.5675C94.1319 12.4032 94.3391 13.3655 94.3391 14.4282Z" fill="#0F0823"/>
<path d="M108.328 5.97746C108.107 5.95573 107.876 5.94458 107.643 5.94458C106.721 5.94458 105.863 6.20004 105.093 6.70408C104.409 7.15275 103.875 7.63598 103.504 8.14281L102.926 6.29274H100.499V22.5952H103.706V13.447C103.706 12.5738 103.876 11.7987 104.209 11.1433C104.54 10.4945 105.006 9.99399 105.595 9.65493C106.187 9.31475 106.876 9.14234 107.643 9.14234C108.11 9.14234 108.523 9.18322 108.869 9.26403L109.104 9.31865V6.10882L108.954 6.07575C108.757 6.03246 108.547 5.99939 108.328 5.97746Z" fill="#0F0823"/>
<path d="M121.317 7.01787C120.16 6.30575 118.86 5.94458 117.455 5.94458C116.028 5.94458 114.691 6.32154 113.481 7.06488C112.271 7.80765 111.304 8.83821 110.604 10.1278C109.903 11.4153 109.548 12.8622 109.548 14.4283C109.548 16.0354 109.898 17.5031 110.587 18.791C111.278 20.0826 112.241 21.1085 113.45 21.8397C114.66 22.5721 116.018 22.9433 117.486 22.9433C118.567 22.9433 119.593 22.7189 120.536 22.2763C121.475 21.8353 122.29 21.246 122.96 20.5244C123.63 19.8024 124.134 19.021 124.458 18.2017L124.561 17.9416H121.29L121.233 18.0263C120.827 18.6316 120.315 19.112 119.71 19.4539C119.108 19.7946 118.36 19.9674 117.486 19.9674C116.553 19.9674 115.716 19.7426 114.999 19.2997C114.282 18.8568 113.713 18.2125 113.308 17.3835C113.077 16.9123 112.911 16.3899 112.809 15.8214H124.832L124.875 15.6913C124.943 15.4881 124.988 15.2384 125.011 14.9493C125.032 14.6684 125.043 14.3652 125.043 14.0482C125.043 12.5467 124.71 11.1637 124.052 9.93825C123.393 8.71132 122.473 7.72869 121.317 7.01787ZM113.339 11.5546C113.766 10.7137 114.352 10.052 115.081 9.5873C115.808 9.12413 116.606 8.88929 117.455 8.88929C118.28 8.88929 119.046 9.11818 119.731 9.56965C120.417 10.023 120.961 10.6576 121.347 11.4561C121.599 11.98 121.771 12.5512 121.86 13.1616H112.803C112.908 12.5879 113.087 12.0503 113.339 11.5546Z" fill="#0F0823"/>
<path d="M138.779 7.01787C137.622 6.30575 136.323 5.94458 134.917 5.94458C133.491 5.94458 132.154 6.32154 130.943 7.06488C129.734 7.80765 128.766 8.83821 128.066 10.1278C127.366 11.4153 127.011 12.8622 127.011 14.4283C127.011 16.0354 127.36 17.5031 128.049 18.791C128.74 20.0826 129.704 21.1085 130.913 21.8397C132.122 22.5721 133.48 22.9433 134.949 22.9433C136.03 22.9433 137.056 22.7189 137.999 22.2763C138.937 21.8353 139.753 21.246 140.423 20.5244C141.093 19.8024 141.596 19.021 141.921 18.2017L142.024 17.9416H138.752L138.695 18.0263C138.29 18.6316 137.778 19.112 137.172 19.4539C136.57 19.7946 135.822 19.9674 134.949 19.9674C134.015 19.9674 133.179 19.7426 132.462 19.2997C131.744 18.8568 131.175 18.2125 130.77 17.3835C130.54 16.9123 130.373 16.3899 130.272 15.8214H142.294L142.337 15.6913C142.405 15.4881 142.451 15.2384 142.473 14.9493C142.495 14.6684 142.505 14.3652 142.505 14.0482C142.505 12.5467 142.172 11.1637 141.514 9.93825C140.855 8.71132 139.935 7.72869 138.779 7.01787ZM130.801 11.5546C131.228 10.7137 131.814 10.052 132.543 9.5873C133.27 9.12413 134.069 8.88929 134.917 8.88929C135.743 8.88929 136.509 9.11818 137.193 9.56965C137.88 10.023 138.424 10.6576 138.809 11.4561C139.062 11.98 139.233 12.5512 139.322 13.1616H130.266C130.371 12.5879 130.549 12.0503 130.801 11.5546Z" fill="#0F0823"/>
<path d="M156.761 0.0568922V8.0002C156.576 7.7897 156.321 7.55821 155.99 7.29904C155.534 6.94178 154.951 6.62352 154.258 6.3532C153.561 6.08195 152.811 5.94447 152.03 5.94447C150.666 5.94447 149.393 6.31122 148.245 7.03448C147.1 7.75663 146.174 8.7766 145.495 10.0663C144.817 11.3542 144.473 12.8215 144.473 14.4282C144.473 16.0345 144.817 17.5071 145.495 18.805C146.174 20.1062 147.1 21.1318 148.245 21.8534C149.391 22.5765 150.665 22.9432 152.03 22.9432C152.833 22.9432 153.599 22.8001 154.308 22.5181C155.009 22.2387 155.602 21.9099 156.069 21.5413C156.46 21.234 156.767 20.9516 156.987 20.6996L157.538 22.595H160V0.0568848L156.761 0.0568922ZM156.761 14.4282C156.761 15.4913 156.554 16.4593 156.145 17.3053C155.738 18.1455 155.183 18.8017 154.497 19.255C153.812 19.7064 153.046 19.9353 152.221 19.9353C151.415 19.9353 150.655 19.7061 149.959 19.2542C149.262 18.8005 148.702 18.1451 148.296 17.3053C147.888 16.4604 147.681 15.4924 147.681 14.4282C147.681 13.3648 147.888 12.4024 148.296 11.5679C148.702 10.7381 149.262 10.0875 149.959 9.63382C150.655 9.18162 151.416 8.95236 152.221 8.95236C153.046 8.95236 153.812 9.18143 154.497 9.63308C155.184 10.0868 155.738 10.7374 156.145 11.5675C156.554 12.4035 156.761 13.3659 156.761 14.4282Z" fill="#0F0823"/>
<path d="M68.6156 10.1996C68.0032 9.82789 67.3301 9.64136 66.5959 9.64136C65.641 9.64136 64.7811 9.90109 64.0163 10.4192C63.2511 10.938 62.6544 11.6124 62.2262 12.4417C61.7976 13.2718 61.5833 14.1261 61.5833 15.0045C61.5833 15.7978 61.7577 16.5179 62.1065 17.1644C62.4554 17.8113 62.9358 18.3208 63.5478 18.6927C64.1598 19.065 64.8393 19.2512 65.5862 19.2512C66.5284 19.2512 67.3823 18.9922 68.1475 18.4731C68.9123 17.9548 69.509 17.2774 69.9376 16.4413C70.3659 15.6057 70.5802 14.7481 70.5802 13.8697C70.5802 13.0764 70.4057 12.3596 70.0569 11.719C69.708 11.078 69.2276 10.572 68.6156 10.1996ZM68.5422 15.7825C68.2727 16.3745 67.8903 16.8471 67.3946 17.2012C66.8989 17.5549 66.351 17.7318 65.7513 17.7318C65.2123 17.7318 64.7535 17.6036 64.3741 17.3476C63.9947 17.0912 63.707 16.7464 63.5113 16.3131C63.3152 15.8803 63.2176 15.4195 63.2176 14.9313C63.2176 14.297 63.3521 13.6865 63.6212 13.1009C63.8903 12.5153 64.2731 12.0456 64.7688 11.6915C65.2645 11.3378 65.8184 11.1605 66.4307 11.1605C66.9566 11.1605 67.4099 11.2887 67.7893 11.5451C68.1683 11.8011 68.4565 12.143 68.6521 12.5699C68.8478 12.9972 68.9458 13.455 68.9458 13.9429C68.9458 14.5775 68.8113 15.1906 68.5422 15.7825Z" fill="#0F0823"/>
<path d="M76.0516 6.03565C75.3047 6.03565 74.6621 6.28274 74.1235 6.77694C73.585 7.27113 73.2361 7.96969 73.077 8.87261L72.9072 9.84279H71.6267L71.3696 11.3255H72.6478L71.2961 19.0498H72.9301L74.2834 11.3255H76.3635L76.6207 9.84279H74.5134L74.6561 9.074C74.7415 8.5616 74.9193 8.18334 75.1884 7.93922C75.4575 7.69546 75.7944 7.57322 76.1984 7.57322C76.3818 7.57322 76.538 7.58548 76.6666 7.60963C76.7952 7.63452 76.9144 7.67094 77.0247 7.71962L77.2633 6.27345C77.0795 6.18836 76.8898 6.12705 76.6941 6.09064C76.4981 6.05385 76.2838 6.03565 76.0516 6.03565Z" fill="#0F0823"/>
</svg>
